HIERARCHY
ROOT Hips
{
 OFFSET 0.000000 0.000000 0.000000
 CHANNELS 6 Xposition Yposition Zposition Yrotation Xrotation Zrotation
 JOINT Chest
 {
  OFFSET 0.000000 9.585900 0.002600
  CHANNELS 3 Yrotation Xrotation Zrotation
  JOINT Chest2
  {
   OFFSET 0.000000 9.601200 -0.005300
   CHANNELS 3 Yrotation Xrotation Zrotation
   JOINT Chest3
   {
    OFFSET 0.000000 9.561800 0.000000
    CHANNELS 3 Yrotation Xrotation Zrotation
    JOINT Chest4
    {
     OFFSET 0.000000 9.552100 0.000000
     CHANNELS 3 Yrotation Xrotation Zrotation
     JOINT Neck
     {
      OFFSET 0.000000 14.453000 0.000000
      CHANNELS 3 Yrotation Xrotation Zrotation
      JOINT Head
      {
       OFFSET 0.000000 8.936500 -0.011300
       CHANNELS 3 Yrotation Xrotation Zrotation
       End Site
       {
        OFFSET 0.000000 17.073600 -0.006000
       }
      }
     }
     JOINT RightCollar
     {
      OFFSET -2.921100 9.558500 0.000000
      CHANNELS 3 Yrotation Xrotation Zrotation
      JOINT RightShoulder
      {
       OFFSET -13.519700 0.000000 0.000000
       CHANNELS 3 Yrotation Xrotation Zrotation
       JOINT RightElbow
       {
        OFFSET 0.000000 -29.696600 0.000000
        CHANNELS 3 Yrotation Xrotation Zrotation
        JOINT RightWrist
        {
         OFFSET 0.000000 -24.004700 0.000000
         CHANNELS 3 Yrotation Xrotation Zrotation
         End Site
         {
          OFFSET 0.000000 -17.728500 0.000000
         }
        }
       }
      }
     }
     JOINT LeftCollar
     {
      OFFSET 2.921100 9.558500 0.000000
      CHANNELS 3 Yrotation Xrotation Zrotation
      JOINT LeftShoulder
      {
       OFFSET 13.519700 0.000000 0.000000
       CHANNELS 3 Yrotation Xrotation Zrotation
       JOINT LeftElbow
       {
        OFFSET 0.000000 -29.696600 0.000000
        CHANNELS 3 Yrotation Xrotation Zrotation
        JOINT LeftWrist
        {
         OFFSET 0.000000 -24.004700 0.000000
         CHANNELS 3 Yrotation Xrotation Zrotation
         End Site
         {
          OFFSET 0.000000 -17.728500 0.000000
         }
        }
       }
      }
     }
    }
   }
  }
 }
 JOINT RightHip
 {
  OFFSET -7.771700 -0.012900 -0.001300
  CHANNELS 3 Yrotation Xrotation Zrotation
  JOINT RightKnee
  {
   OFFSET 0.000000 -40.869800 0.001200
   CHANNELS 3 Yrotation Xrotation Zrotation
   JOINT RightAnkle
   {
    OFFSET 0.000000 -39.717900 0.002100
    CHANNELS 3 Yrotation Xrotation Zrotation
    JOINT RightToe
    {
     OFFSET 0.000000 -4.965400 11.033500
     CHANNELS 3 Yrotation Xrotation Zrotation
     End Site
     {
      OFFSET 0.000000 -1.423100 5.872300
     }
    }
   }
  }
 }
 JOINT LeftHip
 {
  OFFSET 7.771700 -0.012900 -0.001300
  CHANNELS 3 Yrotation Xrotation Zrotation
  JOINT LeftKnee
  {
   OFFSET 0.000000 -40.869800 0.001200
   CHANNELS 3 Yrotation Xrotation Zrotation
   JOINT LeftAnkle
   {
    OFFSET 0.000000 -39.717900 0.002100
    CHANNELS 3 Yrotation Xrotation Zrotation
    JOINT LeftToe
    {
     OFFSET 0.000000 -4.965400 11.033500
     CHANNELS 3 Yrotation Xrotation Zrotation
     End Site
     {
      OFFSET 0.000000 -1.423100 5.872300
     }
    }
   }
  }
 }
}
MOTION
Frames: 5
Frame Time: 0.008333
0.000000 85.388000 0.000000 0.000000 -5.767877 0.000000 0.000000 11.653817 0.000000 0.000000 -5.885947 0.000000 0.000000 -0.000000 0.000000 0.000000 -0.000000 0.000000 0.000000 12.528835 0.000000 0.000000 0.711642 0.000000 0.000000 -0.000000 0.000000 0.000000 0.000000 -90.000000 0.000000 -2.309062 0.000000 0.000000 2.309062 0.000000 0.000000 -0.000000 0.000000 0.000000 -0.000000 90.000000 0.000000 -2.309062 0.000000 0.000000 2.309062 0.000000 0.000000 8.520406 0.000000 0.000000 1.905762 0.000000 -0.000000 -4.658285 0.000000 0.000000 -0.000000 0.000000 0.000000 8.520406 0.000000 0.000000 1.905762 0.000000 -0.000000 -4.658285 0.000000 0.000000 -0.000000 0.000000
-18.092228 55.352218 13.321222 -178.176726 -16.877520 -1.398922 0.494954 15.487550 0.192195 0.041900 1.460930 0.033102 0.070853 2.454904 0.056217 0.436547 13.782344 0.361479 5.353516 14.731052 1.571330 5.311452 -10.049166 0.394100 0.938719 0.279984 2.277217 3.649933 -5.201540 -8.762672 -79.482448 -67.174422 110.477205 -12.439125 -16.327564 -5.984585 -7.108197 -1.474204 1.655790 4.482588 -14.025581 9.333275 63.124495 -62.688028 -100.105742 4.452501 -13.401643 6.283077 -1.105118 -58.001176 11.356980 -90.415475 87.372182 -95.304226 -10.431274 -21.919753 14.524069 0.045984 -0.133625 0.015577 10.991107 -54.391568 -6.777590 110.407843 77.295870 107.560753 -7.670577 -23.637591 1.970567 0.069511 0.250008 0.033649
-18.091863 55.353026 13.319861 -178.181755 -16.888477 -1.403973 0.487085 15.498597 0.197679 0.026525 1.467910 0.035518 0.083065 2.451065 0.053705 0.400974 13.802917 0.363061 5.307500 14.853345 1.485860 5.282603 -9.973320 0.348753 0.962238 0.282112 2.268508 3.627124 -5.215020 -8.721106 -79.466327 -67.215830 110.495403 -12.443866 -16.350602 -6.033558 -7.146979 -1.495216 1.542824 4.554807 -13.930185 9.435298 63.332721 -62.804727 -100.277506 4.416909 -13.285096 6.238460 -1.111687 -57.989497 11.362919 -90.419624 87.376642 -95.312865 -10.375649 -21.922875 14.514820 0.052756 -0.138186 0.014009 10.990430 -54.379640 -6.768662 110.401993 77.297478 107.564270 -7.673987 -23.639264 1.966578 0.075682 0.250888 0.034574
-18.091866 55.353423 13.319747 -178.186766 -16.891623 -1.406854 0.477588 15.504517 0.201001 0.031485 1.474105 0.031913 0.065918 2.462313 0.055781 0.407527 13.801506 0.355704 5.225451 14.974447 1.422186 5.241540 -9.906930 0.314001 0.943025 0.297202 2.276195 3.611939 -5.236396 -8.676432 -79.496438 -67.211730 110.449305 -12.440866 -16.308094 -5.977204 -7.222268 -1.487789 1.444709 4.663825 -13.894460 9.533415 63.453061 -62.913724 -100.383988 4.375006 -13.128389 6.184792 -1.125500 -57.985291 11.369068 -90.381971 87.392296 -95.282095 -10.314414 -21.927697 14.499864 0.057798 -0.139943 0.013073 10.994143 -54.376774 -6.764441 110.414428 77.298876 107.578543 -7.669972 -23.641556 1.968594 0.072871 0.250393 0.033194
-18.093236 55.353475 13.320540 -178.184037 -16.888962 -1.403475 0.459661 15.519941 0.187651 0.038271 1.467203 0.032300 0.068650 2.458194 0.058704 0.395423 13.815449 0.345627 5.150631 15.058892 1.381296 5.168191 -9.820366 0.287559 0.925296 0.305962 2.285687 3.587689 -5.252280 -8.621653 -79.509022 -67.228741 110.413484 -12.439662 -16.278239 -5.945378 -7.294727 -1.461061 1.359454 4.755594 -13.910432 9.628166 63.514337 -63.012779 -100.410222 4.357926 -12.966614 6.119055 -1.129700 -57.988787 11.366794 -90.373757 87.391024 -95.274417 -10.308293 -21.927309 14.496311 0.031861 -0.140532 0.012752 10.999747 -54.378035 -6.773226 110.413736 77.305072 107.575486 -7.666055 -23.640110 1.974064 0.074505 0.250595 0.031293
